<?xml version="1.0" standalone="no"?>
<!DOCTYPE svg PUBLIC "-//W3C//DTD SVG 1.1//EN" "http://www.w3.org/Graphics/SVG/1.1/DTD/svg11.dtd"><svg xmlns="http://www.w3.org/2000/svg" style="background-color:#FFF" width="100" height="75"><path stroke="black" fill="none" stroke-width="1" d="M98.02, 68.26L98.02, 68.29L98.27, 68.39L98.37, 68.64L98.27, 68.89L98.02, 69L1.83, 69L1.59, 68.89L1.48, 68.64L1.59, 68.39L1.83, 68.29L12.67, 68.28L13.49, 68.12L14.16, 67.66L14.61, 66.99L14.78, 66.17L14.78, 65.85L11.97, 65.85L12.71, 66.26L13.01, 67.06L12.91, 67.53L12.65, 67.92L12.27, 68.19L11.79, 68.28L11.31, 68.18L10.92, 67.92L10.66, 67.53L10.56, 67.06L10.86, 66.26L11.6, 65.85L7.66, 65.85L8.4, 66.26L8.69, 67.06L8.6, 67.53L8.33, 67.92L7.94, 68.18L7.47, 68.28L6.99, 68.18L6.61, 67.92L6.35, 67.53L6.25, 67.06L6.54, 66.26L7.28, 65.85L3.16, 65.85L3.9, 66.26L4.2, 67.06L4.1, 67.53L3.84, 67.92L3.46, 68.19L2.98, 68.28L2.5, 68.18L2.11, 67.92L1.85, 67.53L1.75, 67.06L2.05, 66.26L2.79, 65.85L1.83, 65.85L1.59, 65.74L1.48, 65.49L1.59, 65.24L1.83, 65.14L18.5, 65.14L18.5, 40.29L1.82, 40.29L1.57, 40.19L1.46, 39.94L1.57, 39.69L1.82, 39.58L3.45, 39.58L3.45, 38.8L3.57, 38.2L3.91, 37.71L4.4, 37.38L5, 37.26L9.67, 37.26L3.96, 31.77L3.27, 31.79L2.72, 31.36L1.83, 31.36L1.58, 31.26L1.47, 31.01L1.58, 30.76L1.83, 30.65L2.58, 30.65L2.94, 30.03L3.43, 29.81L3.94, 29.86L4.36, 30.16L4.59, 30.65L16.21, 30.65L16.57, 30.03L17.07, 29.81L17.58, 29.86L17.99, 30.16L18.22, 30.65L32.27, 30.65L32.27, 29.4L32.37, 29.14L32.63, 29.04L41.87, 29.04L42.12, 29.14L42.22, 29.4L42.22, 30.65L56.15, 30.65L56.5, 30.05L57.16, 29.8L57.82, 30.05L58.16, 30.65L69.79, 30.65L70.15, 30.03L70.65, 29.81L71.15, 29.86L71.57, 30.16L71.8, 30.65L84.51, 30.65L84.51, 29.4L84.62, 29.14L84.87, 29.04L94.11, 29.04L94.36, 29.15L94.46, 29.4L94.46, 30.65L98.03, 30.65L98.28, 30.76L98.38, 31.01L98.28, 31.26L98.03, 31.36L71.66, 31.36L71.09, 31.79L70.38, 31.75L64.64, 37.25L69.32, 37.25L69.92, 37.37L70.41, 37.7L70.74, 38.19L70.86, 38.79L70.86, 39.58L83.48, 39.58L83.77, 39.68L84.01, 40.04L84.21, 40.71L84.39, 41.74L84.63, 43.75L84.85, 46.41L85.26, 57.86L97.2, 53.34L97.47, 53.46L97.35, 53.74L85.26, 58.31L85.26, 58.6L85.23, 61.37L85.13, 63.5L97.41, 68.16L97.53, 68.26L98.02, 68.26"/><path stroke="black" fill="none" stroke-width="1" d="M3.77, 67.04L3.66, 67.45L3.37, 67.73L2.98, 67.84L2.57, 67.73L2.28, 67.43L2.17, 67.03L2.28, 66.62L2.57, 66.34L2.96, 66.23L3.37, 66.34L3.67, 66.63L3.77, 67.04"/><path stroke="black" fill="none" stroke-width="1" d="M8.27, 67.04L8.16, 67.45L7.87, 67.73L7.48, 67.84L7.07, 67.73L6.77, 67.43L6.66, 67.03L6.78, 66.62L7.07, 66.34L7.46, 66.23L7.87, 66.34L8.16, 66.63L8.27, 67.04"/><path stroke="black" fill="none" stroke-width="1" d="M12.58, 67.04L12.47, 67.45L12.18, 67.73L11.79, 67.84L11.38, 67.73L11.08, 67.43L10.98, 67.03L11.09, 66.62L11.38, 66.34L11.77, 66.23L12.18, 66.34L12.48, 66.63L12.58, 67.04"/><path stroke="black" fill="none" stroke-width="1" d="M84.44, 63.25L84.43, 63.25L84.52, 61.23L84.55, 58.58L83.82, 58.86L84.05, 59.57L84.14, 60.96L84.12, 61.74L84.05, 62.32L83.85, 63.03L84.44, 63.25"/><path stroke="black" fill="none" stroke-width="1" d="M83.4, 59.02L83.48, 59.13L83.58, 59.45L83.67, 60.04L83.71, 60.96L83.67, 61.88L83.58, 62.47L83.49, 62.79L83.41, 62.9L83.17, 62.75L82.99, 62.35L82.87, 61.74L82.82, 60.96L82.86, 60.17L82.98, 59.56L83.17, 59.16L83.41, 59.02L83.4, 59.02"/><path stroke="black" fill="none" stroke-width="1" d="M84.44, 52.68L84.48, 54.19L82.03, 54.19L81.56, 54L81.37, 53.53L81.37, 43.21L81.56, 42.74L82.03, 42.55L83.77, 42.55L83.96, 44.38L84.14, 46.7L84.31, 49.47L84.44, 52.69L84.44, 52.68"/><path stroke="black" fill="none" stroke-width="1" d="M83.73, 42.12L82.03, 42.12L81.26, 42.44L80.94, 43.2L80.94, 53.52L81.26, 54.29L82.03, 54.61L84.5, 54.61L84.55, 58.12L83.33, 58.58L83.31, 58.58L82.92, 58.78L82.63, 59.25L82.45, 59.97L82.39, 60.93L82.46, 61.91L82.66, 62.66L82.98, 63.13L83.41, 63.3L83.43, 63.3L84.39, 63.66L84.29, 64.57L84.17, 65.09L66.92, 65.09L66.92, 40.25L83.33, 40.25L83.51, 40.89L83.7, 42.09L83.73, 42.12"/><path stroke="black" fill="none" stroke-width="1" d="M50.68, 65.12L29.17, 65.12L29.17, 40.27L66.51, 40.27L66.51, 65.12L50.68, 65.12"/><path stroke="black" fill="none" stroke-width="1" d="M70.15, 38.79L70.15, 39.57L57.8, 39.57L57.8, 38.79L58.04, 38.2L58.63, 37.96L69.33, 37.96L69.91, 38.2L70.16, 38.79L70.15, 38.79"/><path stroke="black" fill="none" stroke-width="1" d="M63.97, 36.9L58.2, 31.36L69.75, 31.36L63.97, 36.9"/><path stroke="black" fill="none" stroke-width="1" d="M85.21, 29.75L93.74, 29.75L93.74, 30.65L85.21, 30.65L85.21, 29.75"/><path stroke="black" fill="none" stroke-width="1" d="M32.98, 29.75L41.51, 29.75L41.51, 30.65L32.98, 30.65L32.98, 29.75"/><path stroke="black" fill="none" stroke-width="1" d="M16.13, 31.36L10.36, 36.9L4.58, 31.36L16.13, 31.36"/><path stroke="black" fill="none" stroke-width="1" d="M4.18, 38.79L4.42, 38.2L5.01, 37.96L15.71, 37.96L16.29, 38.2L16.54, 38.79L16.54, 39.57L4.18, 39.57L4.18, 38.79"/><path stroke="black" fill="none" stroke-width="1" d="M17.24, 39.56L17.24, 38.78L17.12, 38.18L16.78, 37.69L16.29, 37.36L15.69, 37.24L11.02, 37.24L16.77, 31.72L17.22, 31.83L17.72, 31.7L18.08, 31.35L56.3, 31.35L56.87, 31.78L57.58, 31.74L63.31, 37.24L58.64, 37.24L58.03, 37.36L57.54, 37.69L57.21, 38.18L57.09, 38.78L57.09, 39.56L28.82, 39.56L28.57, 39.67L28.46, 39.92L28.46, 39.94L27.16, 40.4L25.51, 39.81L23.86, 40.4L22.21, 39.81L20.55, 40.4L19.26, 39.94L19.26, 39.92L19.15, 39.67L18.9, 39.56L17.27, 39.56L17.24, 39.56"/><path stroke="black" fill="none" stroke-width="1" d="M27.15, 64.42L25.5, 65.02L23.85, 64.42L22.19, 65.02L20.54, 64.42L19.24, 64.88L19.24, 40.68L20.54, 41.15L22.19, 40.55L23.85, 41.15L25.5, 40.55L27.15, 41.15L28.45, 40.68L28.45, 64.88L27.15, 64.42"/><path stroke="black" fill="none" stroke-width="1" d="M14.53, 68.26L15.22, 67.33L15.48, 66.15L15.48, 65.83L18.87, 65.83L19.17, 65.67L20.53, 65.18L22.19, 65.77L23.84, 65.18L25.49, 65.77L27.14, 65.18L28.5, 65.67L28.81, 65.83L31.42, 65.83L31.42, 66.15L31.67, 67.33L32.37, 68.26L14.53, 68.26"/><path stroke="black" fill="none" stroke-width="1" d="M47.67, 68.26L34.23, 68.26L33.41, 68.09L32.74, 67.64L32.29, 66.97L32.12, 66.15L32.12, 65.83L34.48, 65.83L33.74, 66.24L33.45, 67.04L33.54, 67.51L33.81, 67.9L34.19, 68.16L34.67, 68.26L35.3, 68.09L35.73, 67.65L35.9, 67.06L35.73, 66.43L35.37, 66.03L34.86, 65.83L38.68, 65.83L37.94, 66.24L37.64, 67.04L37.74, 67.51L38, 67.9L38.39, 68.16L38.86, 68.26L39.34, 68.16L39.73, 67.9L39.99, 67.51L40.09, 67.04L39.8, 66.24L39.05, 65.83L43.18, 65.83L42.43, 66.24L42.14, 67.04L42.24, 67.51L42.5, 67.9L42.89, 68.16L43.37, 68.26L43.84, 68.17L44.23, 67.9L44.49, 67.51L44.59, 67.04L44.29, 66.24L43.55, 65.83L47.49, 65.83L46.75, 66.24L46.45, 67.04L46.55, 67.51L46.81, 67.9L47.2, 68.16L47.67, 68.26L48.14, 68.17L48.54, 67.9L48.8, 67.51L48.9, 67.04L48.6, 66.24L47.86, 65.83L50.33, 65.83L50.33, 66.15L50.16, 66.97L49.71, 67.64L49.04, 68.1L48.22, 68.26L47.67, 68.26"/><path stroke="black" fill="none" stroke-width="1" d="M34.68, 66.24L35.09, 66.36L35.37, 66.64L35.48, 67.03L35.37, 67.45L35.08, 67.74L34.68, 67.85L34.26, 67.73L33.98, 67.45L33.87, 67.06L33.98, 66.64L34.28, 66.35L34.68, 66.24"/><path stroke="black" fill="none" stroke-width="1" d="M38.87, 66.24L39.28, 66.36L39.56, 66.64L39.67, 67.03L39.56, 67.45L39.27, 67.74L38.87, 67.85L38.46, 67.73L38.17, 67.45L38.07, 67.06L38.17, 66.64L38.47, 66.35L38.87, 66.24"/><path stroke="black" fill="none" stroke-width="1" d="M43.36, 66.24L43.78, 66.36L44.06, 66.64L44.17, 67.03L44.06, 67.45L43.76, 67.74L43.36, 67.85L42.95, 67.73L42.67, 67.44L42.56, 67.06L42.67, 66.64L42.96, 66.35L43.36, 66.24"/><path stroke="black" fill="none" stroke-width="1" d="M47.67, 66.24L48.08, 66.36L48.36, 66.64L48.47, 67.03L48.36, 67.45L48.07, 67.74L47.67, 67.85L47.25, 67.73L46.97, 67.45L46.86, 67.06L46.97, 66.64L47.27, 66.35L47.67, 66.24"/><path stroke="black" fill="none" stroke-width="1" d="M50.08, 68.26L50.77, 67.33L51.03, 66.15L51.03, 65.83L60.41, 65.83L60.41, 66.15L60.67, 67.33L61.36, 68.26L50.08, 68.26"/><path stroke="black" fill="none" stroke-width="1" d="M76.7, 68.26L63.22, 68.26L62.4, 68.09L61.73, 67.64L61.28, 66.97L61.11, 66.15L61.11, 65.83L63.52, 65.83L62.78, 66.24L62.49, 67.04L62.59, 67.51L62.85, 67.9L63.24, 68.16L63.71, 68.26L64.34, 68.09L64.77, 67.65L64.94, 67.06L64.78, 66.43L64.41, 66.03L63.91, 65.83L67.72, 65.83L66.98, 66.24L66.69, 67.04L66.78, 67.51L67.04, 67.9L67.43, 68.16L67.91, 68.26L68.38, 68.16L68.77, 67.9L69.03, 67.51L69.13, 67.04L68.84, 66.24L68.1, 65.83L72.22, 65.83L71.48, 66.24L71.18, 67.04L71.28, 67.51L71.54, 67.9L71.93, 68.16L72.41, 68.26L72.89, 68.17L73.27, 67.9L73.53, 67.51L73.63, 67.04L73.33, 66.24L72.59, 65.83L76.53, 65.83L75.79, 66.24L75.5, 67.04L75.59, 67.51L75.86, 67.9L76.25, 68.16L76.72, 68.26L77.35, 68.09L77.78, 67.65L77.95, 67.06L77.78, 66.43L77.42, 66.03L76.91, 65.83L79.33, 65.83L79.33, 66.15L79.16, 66.97L78.71, 67.64L78.04, 68.1L77.22, 68.26L76.7, 68.26"/><path stroke="black" fill="none" stroke-width="1" d="M63.71, 66.24L64.12, 66.36L64.4, 66.64L64.51, 67.03L64.4, 67.45L64.11, 67.74L63.7, 67.85L63.29, 67.73L63.01, 67.45L62.9, 67.06L63.01, 66.64L63.3, 66.35L63.71, 66.24"/><path stroke="black" fill="none" stroke-width="1" d="M67.9, 66.24L68.31, 66.36L68.59, 66.64L68.7, 67.03L68.59, 67.45L68.3, 67.74L67.9, 67.85L67.48, 67.73L67.2, 67.45L67.09, 67.06L67.2, 66.64L67.5, 66.35L67.9, 66.24"/><path stroke="black" fill="none" stroke-width="1" d="M72.39, 66.24L72.8, 66.36L73.08, 66.64L73.19, 67.03L73.08, 67.45L72.79, 67.74L72.39, 67.85L71.98, 67.73L71.69, 67.45L71.59, 67.06L71.69, 66.64L71.99, 66.35L72.39, 66.24"/><path stroke="black" fill="none" stroke-width="1" d="M76.7, 66.24L77.11, 66.36L77.4, 66.64L77.5, 67.03L77.4, 67.45L77.1, 67.74L76.7, 67.85L76.29, 67.73L76.01, 67.45L75.9, 67.06L76.01, 66.64L76.3, 66.35L76.7, 66.24"/><path stroke="black" fill="none" stroke-width="1" d="M80.01, 66.15L80.01, 65.83L84.32, 65.83L84.61, 65.74L84.82, 65.42L84.97, 64.84L85.09, 63.95L96.46, 68.26L79.06, 68.26L79.75, 67.33L80.01, 66.15"/><path stroke="black" fill="none" stroke-width="1" d="M98.02, 70.25L98.27, 70.36L98.37, 70.61L98.27, 70.85L98.02, 70.96L1.84, 70.96L1.59, 70.86L1.48, 70.61L1.59, 70.36L1.84, 70.25L98.02, 70.25"/><path stroke="black" fill="none" stroke-width="1" d="M71.38, 54.62L70.61, 54.3L70.29, 53.53L70.29, 43.21L70.61, 42.44L71.38, 42.13L77.34, 42.13L78.11, 42.44L78.43, 43.21L78.43, 53.53L78.11, 54.3L77.34, 54.62L71.38, 54.62"/><path stroke="black" fill="none" stroke-width="1" d="M70.72, 43.21L70.91, 42.74L71.38, 42.55L77.34, 42.55L77.81, 42.74L78, 43.21L78, 53.53L77.81, 54L77.34, 54.19L71.38, 54.19L70.91, 54L70.72, 53.53L70.72, 43.21"/><path stroke="black" fill="none" stroke-width="1" d="M20.54, 41.34L20.74, 41.56L20.09, 52.54L19.88, 52.74L19.87, 52.74L19.66, 52.52L20.31, 41.54L20.54, 41.34"/><path stroke="black" fill="none" stroke-width="1" d="M23.2, 52.31L23.21, 52.31L23.4, 52.53L22.63, 63.31L22.41, 63.5L22.39, 63.5L22.2, 63.28L22.97, 52.5L23.2, 52.31"/><path stroke="black" fill="none" stroke-width="1" d="M27.59, 57.6L27.6, 57.6L27.79, 57.82L27.4, 63.32L27.18, 63.51L27.16, 63.51L26.97, 63.29L27.36, 57.79L27.59, 57.6"/><path stroke="black" fill="none" stroke-width="1" d="M25.72, 41.88L25.73, 41.88L25.34, 47.38L25.12, 47.57L25.1, 47.57L24.91, 47.35L25.31, 41.85L25.53, 41.66L25.72, 41.88"/><path stroke="black" fill="none" stroke-width="1" d="M22.36, 41.34L22.37, 41.34L22.57, 41.56L21.1, 63.93L20.88, 64.13L20.87, 64.13L20.67, 63.91L22.14, 41.54L22.36, 41.34"/><path stroke="black" fill="none" stroke-width="1" d="M26.99, 41.34L27.19, 41.56L25.72, 63.93L25.51, 64.13L25.5, 64.13L25.29, 63.91L26.77, 41.54L26.99, 41.34"/><path stroke="black" fill="none" stroke-width="1" d="M62.44, 42.12L63.21, 42.44L63.52, 43.2L63.52, 53.52L63.21, 54.29L62.44, 54.61L50.33, 54.61L49.56, 54.29L49.24, 53.52L49.24, 43.2L49.56, 42.44L50.33, 42.12L62.44, 42.12"/><path stroke="black" fill="none" stroke-width="1" d="M49.66, 53.53L49.66, 43.21L49.85, 42.74L50.32, 42.55L53.44, 42.55L53.44, 54.19L50.32, 54.19L49.85, 54L49.66, 53.53"/><path stroke="black" fill="none" stroke-width="1" d="M63.1, 53.53L62.91, 54L62.44, 54.19L53.88, 54.19L53.88, 42.55L62.44, 42.55L62.91, 42.75L63.1, 43.21L63.1, 53.53"/><path stroke="black" fill="none" stroke-width="1" d="M44.27, 54.62L32.15, 54.62L31.39, 54.3L31.07, 53.53L31.07, 43.21L31.39, 42.44L32.15, 42.13L44.27, 42.13L45.03, 42.44L45.35, 43.21L45.35, 53.53L45.03, 54.3L44.27, 54.62"/><path stroke="black" fill="none" stroke-width="1" d="M44.93, 43.21L44.93, 53.53L44.73, 54L44.27, 54.19L35.6, 54.19L35.6, 42.55L44.27, 42.55L44.73, 42.75L44.93, 43.21"/><path stroke="black" fill="none" stroke-width="1" d="M31.49, 53.53L31.49, 43.21L31.68, 42.74L32.15, 42.55L35.18, 42.55L35.18, 54.19L32.15, 54.19L31.68, 54L31.49, 53.53"/><path stroke="black" fill="none" stroke-width="1" d="M1.84, 54.19L5.2, 54.19L5.2, 42.56L1.84, 42.56L1.62, 42.34L1.84, 42.13L13.04, 42.13L13.81, 42.45L14.12, 43.22L14.12, 53.54L13.81, 54.3L13.04, 54.62L1.84, 54.62L1.62, 54.41L1.84, 54.19"/><path stroke="black" fill="none" stroke-width="1" d="M5.63, 42.54L13.04, 42.54L13.51, 42.74L13.7, 43.2L13.7, 53.52L13.51, 53.99L13.04, 54.18L5.63, 54.18L5.63, 42.54"/><path stroke="black" fill="none" stroke-width="1" d="M10.35, 57.7L10.56, 57.91L10.35, 58.13L4.1, 58.13L3.88, 57.91L4.1, 57.7L10.35, 57.7"/><path stroke="black" fill="none" stroke-width="1" d="M10.35, 59.73L10.56, 59.94L10.35, 60.16L4.1, 60.16L3.88, 59.94L4.1, 59.73L10.35, 59.73"/><path stroke="black" fill="none" stroke-width="1" d="M10.35, 61.76L10.56, 61.97L10.35, 62.19L4.1, 62.19L3.88, 61.97L4.1, 61.76L10.35, 61.76"/><path stroke="black" fill="none" stroke-width="1" d="M59.95, 57.7L60.17, 57.91L59.95, 58.13L34.77, 58.13L34.55, 57.91L34.77, 57.7L59.95, 57.7"/><path stroke="black" fill="none" stroke-width="1" d="M59.95, 59.73L60.17, 59.94L59.95, 60.16L34.77, 60.16L34.55, 59.94L34.77, 59.73L59.95, 59.73"/><path stroke="black" fill="none" stroke-width="1" d="M59.95, 61.76L60.17, 61.97L59.95, 62.19L34.77, 62.19L34.55, 61.97L34.77, 61.76L59.95, 61.76"/></svg>