<!-- Generator: Adobe Illustrator 24.3.0, SVG Export Plug-In . SVG Version: 6.00 Build 0)  --><svg version="1.1" id="Layer_1" xmlns="http://www.w3.org/2000/svg" xmlns:xlink="http://www.w3.org/1999/xlink" x="0px" y="0px" viewBox="0 0 649.04 386.02" style="enable-background:new 0 0 649.04 386.02;" xml:space="preserve" height="1158" width="1946"><style type="text/css">	.st0{fill:#FFFFFF;stroke:#1A2E35;stroke-width:2.5;stroke-linecap:round;stroke-linejoin:round;stroke-miterlimit:10;}	.st1{fill:#1A2E35;stroke:#1A2E35;stroke-width:2.5;stroke-linecap:round;stroke-linejoin:round;stroke-miterlimit:10;}	.st2{fill:none;stroke:#FFFFFF;stroke-width:3;stroke-linecap:round;stroke-linejoin:round;stroke-miterlimit:10;}	.st3{fill:#FF644C;stroke:#1A2E35;stroke-width:2.5;stroke-linecap:round;stroke-linejoin:round;stroke-miterlimit:10;}	.st4{fill:#8CBBE5;stroke:#1A2E35;stroke-width:2.5;stroke-linecap:round;stroke-linejoin:round;stroke-miterlimit:10;}	.st5{fill:none;stroke:#FFFFFF;stroke-width:2.5;stroke-linecap:round;stroke-linejoin:round;stroke-miterlimit:10;}	.st6{fill:#FF644C;}	.st7{fill:#FFFFFF;}	.st8{fill:none;stroke:#1A2E35;stroke-width:2.5;stroke-linecap:round;stroke-linejoin:round;stroke-miterlimit:10;}	.st9{fill:#00786C;}	.st10{fill:#00786B;}	.st11{fill:#B31414;}</style><g>	<path class="st7" d="M509.89,104.27c-6.53-0.17-13.12-0.23-19.7-0.23c-7.21,0-14.4,0.07-21.46,0.14l-3.07,0.03   c-6.92,0.07-8.43,1.53-8.48,8.27c-0.12,16.15-0.12,32.55,0.01,48.75c0.05,6.67,1.7,8.31,8.41,8.37c10.89,0.1,21.98,0.08,32.7,0.06   c3.1-0.01,6.21-0.01,9.31-0.02v-0.03h4.45c4.64,0,9.27,0.01,13.91,0.01c10.68,0.01,21.72,0.03,32.57-0.04   c8.29-0.05,12.32-3.9,12.33-11.76c0.01-3.76-0.59-7.46-1.72-10.71C562.4,127.64,530.83,104.81,509.89,104.27z M559.79,157.57   l-5.02,0.51c-0.55,0.06-1.09,0.12-1.62,0.19c-1.34,0.17-2.72,0.35-4.22,0.35c-7.33,0.01-14.67,0-22.01-0.01   c-15.39-0.02-31.3-0.04-46.94,0.14c-0.13,0-0.26,0-0.39,0c-2.85,0-6.32-0.38-8.76-2.87c-2.56-2.61-2.66-6.24-2.51-8.75   c0.42-7.14,0.24-14.53,0.08-21.67l-0.02-0.65c-0.03-1.18-0.11-4.77,2.46-7.3c1.72-1.69,4.15-2.5,7.36-2.45   c4.25,0.06,8.61,0.02,12.82-0.01c6.2-0.05,12.62-0.11,18.97,0.14c8.31,0.32,19.34,5.18,29.49,13c10.2,7.85,17.37,17.04,19.17,24.58   L559.79,157.57z" />	<path class="st7" d="M231.69,105.64c-5.34,0-10.68,0-16.02,0c-9.01,0-18.01,0-27.02,0c-6.66,0-9.33,1.24-10.39,2.28   c-0.49,0.48-1.13,1.36-1.12,3.54c0.01,1.97,0.03,5.63,11.76,5.65c8.56,0.02,17.13,0.04,25.69,0.07   c20.44,0.06,41.58,0.11,62.37,0.12c11.01-0.02,21.88-0.13,32.28-0.4c2.97-0.08,5.33-0.87,6.63-2.24c0.88-0.92,1.3-2.14,1.24-3.63   c-0.05-1.22-0.2-4.93-8.18-5.27c-1.2-0.05-2.42-0.05-3.72-0.04l-1.02,0c-14.61,0-29.23,0-43.84,0h-16.98v-0.08H231.69z" />	<path class="st7" d="M231.69,162.69c-5.34,0-10.68,0-16.02,0c-9.01,0-18.01,0-27.02,0c-6.66,0-9.33,1.24-10.39,2.28   c-0.49,0.48-1.13,1.36-1.12,3.54c0.01,1.97,0.03,5.63,11.76,5.65c8.56,0.02,17.13,0.04,25.69,0.07   c20.44,0.06,41.58,0.11,62.37,0.12c11.01-0.02,21.88-0.13,32.28-0.4c2.97-0.08,5.33-0.87,6.63-2.24c0.88-0.92,1.3-2.14,1.24-3.63   c-0.05-1.22-0.2-4.93-8.18-5.27c-1.2-0.05-2.42-0.05-3.72-0.04l-1.02,0c-14.61,0-29.23,0-43.84,0h-16.98v-0.08H231.69z" />	<path class="st7" d="M396.58,157.48c0.04-1.68,0.04-3.29-0.13-4.82c-0.35-3.18-1.89-4.67-5.01-4.83c-0.19-0.01-0.38-0.02-0.57-0.02   c-2.19,0-4.61,0.7-4.94,3.7c-0.73,6.65-0.74,13.23-0.03,19.58c0.42,3.75,3.93,4.01,5.42,3.94c3.12-0.13,4.69-1.62,5.08-4.81   c0.21-1.7,0.15-3.54,0.09-5.49c-0.03-0.94-0.06-1.92-0.06-2.91v-4.34H396.58z" />	<path class="st7" d="M110.6,157.24c0-1.04,0-2.05-0.05-3.06c-0.09-1.98-0.82-6.59-5.75-6.59c-0.02,0-0.03,0-0.05,0   c-3.46,0.02-5.57,2.22-5.79,6.02c-0.3,5.07-0.31,10.45-0.03,16.01c0.18,3.62,1.89,5.3,5.72,5.61c3.02,0.25,5.35-2.15,5.67-5.83   c0.14-1.64,0.1-3.37,0.06-5.2c-0.02-0.89-0.04-1.78-0.04-2.67v-4.3L110.6,157.24z" />	<path class="st7" d="M231.69,134.17c-5.34,0-10.68,0-16.02,0c-9.01,0-18.01,0-27.02,0c-6.66,0-9.33,1.24-10.39,2.28   c-0.49,0.48-1.13,1.36-1.12,3.54c0.01,1.97,0.03,5.63,11.76,5.65c8.56,0.02,17.13,0.04,25.69,0.07   c20.44,0.06,41.58,0.11,62.37,0.12c11.01-0.02,21.88-0.13,32.28-0.4c2.97-0.08,5.33-0.87,6.63-2.24c0.88-0.92,1.3-2.14,1.24-3.63   c-0.05-1.22-0.2-4.93-8.18-5.27c-1.2-0.05-2.42-0.05-3.72-0.04l-1.02,0c-14.61,0-29.23,0-43.84,0h-16.98v-0.08H231.69z" />	<path class="st7" d="M583.32,273.75c1.45-3.76,2.69-7.01,3.38-10.3c1.69-8.08,7.49-8.9,11.68-8.8c7.41,0.16,15.41,0.17,25.19,0.02   c6.51-0.1,8.08-1.63,7.99-7.79c-0.03-1.84-0.05-3.69-0.07-5.53c-0.15-11.62-0.3-23.63-1.31-35.29   c-2.83-32.72-10.39-58.35-23.8-80.66c-26.97-44.88-65.16-67.77-113.5-68.03c-112.89-0.62-227.68-0.57-338.69-0.51   c-41.63,0.02-84.68,0.04-127.03,0.03c0,0-0.01,0-0.01,0c-4.1,0-6.68,0.56-7.89,1.72c-1.2,1.14-1.78,3.57-1.78,7.45   c-0.01,57.6,0.04,116.73,0.16,180.79c0.01,6.59,1.51,8.04,8.46,8.15c3.89,0.06,7.86,0.04,11.7,0.03c4.71-0.02,9.58-0.04,14.4,0.08   c2.55,0.06,7.76,1.16,9.24,4.87c1.84,4.6,3.29,9.24,4.82,14.15c0.54,1.72,1.08,3.47,1.66,5.25l1.82,5.64l-15.98,0   c-3.21,0-6.39,0-9.56,0c-3.95,0-7.88,0-11.81,0.01c-5.22,0.01-8.19,0.53-9.36,1.65c-1.14,1.09-1.68,3.9-1.68,8.84   c-0.01,15.45-0.01,8.06,0.03,22.25c0.01,3.79,0.21,8.33,1.7,9.8c1.46,1.45,5.98,1.63,9.76,1.63c0.01,0,0.02,0,0.03,0   c93.95-0.03,187.89-0.06,281.84-0.1l26.99-0.01c92.23-0.03,184.46-0.07,276.69-0.12c4.27,0,6.85-0.49,7.89-1.5   c1.03-1,1.54-3.47,1.55-7.57c0.07-18.65,0.07-11.73,0.01-26.36c-0.03-7.15-1.33-8.41-8.74-8.43c-7.63-0.02-15.15-0.02-23.12-0.01   c-3.46,0-6.97,0-10.54,0h-6.24l2.03-5.75C581.93,277.37,582.64,275.53,583.32,273.75z M32.37,71.18c2.67-2.62,6.44-2.98,9.78-2.98   c0.01,0,0.02,0,0.03,0c63.78,0.05,128.63,0.02,191.34-0.01c83.94-0.03,170.74-0.07,256.11,0.07   c46.81,0.08,83.06,21.31,107.76,63.11c11.53,19.52,18.32,41.89,21.37,70.41c0.12,1.09-0.02,2.04-0.14,2.87   c-0.04,0.29-0.09,0.61-0.12,0.96l-0.38,3.93H428.66l0.01-37.31c0.01-20.28,0.02-40.55,0-60.83c0-4.36-0.5-6.96-1.51-7.94   c-1.01-0.98-3.68-1.46-8.16-1.46c-5.86,0-11.72-0.01-17.58-0.01c-12.48-0.01-25.39-0.02-38.08,0.01c-4.58,0.01-7.29,0.49-8.3,1.46   c-0.99,0.96-1.48,3.54-1.48,7.9c0,5.76-0.01,11.52-0.02,17.28c-0.03,22.94-0.05,46.67,0.14,69.99c0.02,2.76-0.27,6.23-2.77,8.68   c-2.46,2.42-5.92,2.74-8.69,2.74c-0.04,0-0.08,0-0.12,0c-45.63-0.15-92.03-0.17-136.9-0.19c-17.07-0.01-34.15-0.02-51.22-0.03   c-1.55,0-3.02-0.13-4.71-0.28c-0.81-0.07-1.69-0.15-2.66-0.22l-4.13-0.29l0-81.82c0-1.87,0.01-3.74,0.02-5.61   c0.03-4.44,0.06-9.03-0.08-13.5c-0.19-6.05-4.08-6.11-5.55-6.13c-25.74-0.35-45.47-0.37-63.96-0.06c-3.15,0.05-6.12,0.1-6.14,9.09   c-0.03,19.5-0.01,39.32,0.01,58.49c0.01,8.69,0.02,17.37,0.02,26.06c0,5.77,0,9.25-2.65,11.77c-2.6,2.46-6.02,2.47-12.23,2.47   c-10.24,0.01-15.39,0.02-18.95-3.46c-3.57-3.48-3.56-8.5-3.56-18.52c0.01-9.58,0.03-19.16,0.05-28.74   c0.05-25.72,0.1-52.32-0.08-78.46C29.36,77.61,29.68,73.81,32.37,71.18z M417.33,184.14l0,25.46h-51.36l-0.41-3.9   c-0.07-0.65-0.15-1.28-0.24-1.91c-0.19-1.47-0.4-2.99-0.4-4.59c-0.01-8.14,0.01-16.28,0.02-24.42c0.03-16.52,0.05-33.6-0.1-50.39   c-0.03-2.82,0.28-6.38,2.94-8.89c2.65-2.51,6.33-2.67,8.87-2.57c7.1,0.27,14.37,0.26,21.41,0.25c2.9,0,5.8-0.01,8.7,0   c2.62,0.01,10.61,0.05,10.6,8.92C417.32,142.66,417.32,162.81,417.33,184.14z M78.78,122.86c-0.01-3.17,0.83-5.53,2.57-7.21   c1.72-1.67,4.1-2.46,7.28-2.43c12.57,0.12,22.81,0.1,32.21-0.06c3.32-0.06,5.79,0.75,7.56,2.47c2.39,2.32,2.63,5.48,2.6,7.66   c-0.11,9.37-0.09,18.92-0.07,28.15c0,2.18,0.01,4.36,0.01,6.55h0l0.04,4.34c0,3.53-0.02,7.07-0.03,10.6   c-0.04,8.64-0.08,17.58,0.13,26.34c0.05,2.33-0.16,5.71-2.65,8.13c-2.25,2.19-5.33,2.55-7.69,2.55c-0.25,0-0.49,0-0.71-0.01   c-10.96-0.3-22.04-0.2-31.44-0.06c-1.19,0.02-4.81,0.07-7.37-2.39c-2.55-2.46-2.54-5.99-2.53-7.15   C78.82,174.36,78.85,148.3,78.78,122.86z M583.63,295.87c6.35,0,12.69,0,19.2,0l13.83,0v21.97H32.81c0,0-0.04-2.6,0.04-6.72   l-0.05,0.04v-14.93h19.56l-0.01,0.01c14.64-0.12,29.36-0.12,43.69-0.12c4.23,0,8.46,0,12.69,0   C267.03,296.04,425.33,295.95,583.63,295.87z M73.71,255.29h55.3l0.28,4.05c0.84,12-10.03,23.24-23.74,24.55   c-1.07,0.1-2.13,0.15-3.17,0.15c-14.43,0-25.96-9.61-27.97-23.82L73.71,255.29z M145.68,255.44h56.35l-0.3,4.62   c-0.88,13.39-11.92,23.47-26.24,23.96c-0.39,0.01-0.79,0.02-1.18,0.02c-14.65,0-26.07-9.6-27.96-23.7L145.68,255.44z    M218.22,255.25h55.17l0.11,4.23c0.34,12.93-11.14,23.93-25.6,24.52c-0.47,0.02-0.94,0.03-1.4,0.03c-15.2,0-27.13-10.19-28-24.18   L218.22,255.25z M278.53,284.5l1.82-5.64c0.5-1.56,1-3.13,1.49-4.69c1.45-4.59,2.95-9.33,4.65-13.97c1.12-3.06,4.91-5.14,7.74-5.16   c17.49-0.11,35.24-0.11,52.4-0.1l14.56,0l10.27,29.56H278.53z M374.96,255.3h56.47l-0.23,4.56c-0.66,13.03-11.68,23.44-25.64,24.21   c-0.65,0.04-1.3,0.05-1.94,0.05c-14.69,0-25.8-9.39-27.92-23.86L374.96,255.3z M447.28,255.26h56.38l-0.26,4.58   c-0.78,13.58-12.95,24.27-27.71,24.33c-0.04,0-0.09,0-0.13,0c-14.95,0-26.66-10.16-27.88-24.2L447.28,255.26z M518.5,255.14h57.12   l-0.25,4.57c-0.71,13.09-11.81,23.59-25.82,24.42c-0.69,0.04-1.37,0.06-2.04,0.06c-14.53,0-25.73-9.44-28.17-24.01L518.5,255.14z    M483.52,243.95c-107.35-0.07-214.7-0.13-322.05-0.18c-24.37-0.01-49.16,0.02-73.12,0.05c-15.3,0.02-30.61,0.04-45.91,0.05   c0,0-0.01,0-0.01,0c-6.61,0-9.93-2.67-11.56-4.91c-1.62-2.24-3.09-6.19-0.88-12.27c1.04-2.86,4.2-4.86,6.79-5.36   c2.15-0.41,4.26-0.35,6.12-0.3c0.58,0.02,1.17,0.03,1.75,0.03c0,0,0.01,0,0.01,0c164.13-0.07,328.25-0.14,492.38-0.2   c15.03-0.01,30.05-0.01,45.08-0.01l38.22,0v23.2h-6.66l-4.91,0L483.52,243.95z" /></g></svg>