<?xml version="1.0"?>
<svg width="100" height="46" xmlns="http://www.w3.org/2000/svg" xmlns:svg="http://www.w3.org/2000/svg">
 <g class="layer">
  <title>Layer 1</title>
  <path d="m98.02,41.26l0,0.03l0.25,0.1l0.1,0.25l-0.1,0.25l-0.25,0.11l-96.19,0l-0.24,-0.11l-0.11,-0.25l0.11,-0.25l0.24,-0.1l10.84,-0.01l0.82,-0.16l0.67,-0.46l0.45,-0.67l0.17,-0.82l0,-0.32l-2.81,0l0.74,0.41l0.3,0.8l-0.1,0.47l-0.26,0.39l-0.38,0.27l-0.48,0.09l-0.48,-0.1l-0.39,-0.26l-0.26,-0.39l-0.1,-0.47l0.3,-0.8l0.74,-0.41l-3.94,0l0.74,0.41l0.29,0.8l-0.09,0.47l-0.27,0.39l-0.39,0.26l-0.47,0.1l-0.48,-0.1l-0.38,-0.26l-0.26,-0.39l-0.1,-0.47l0.29,-0.8l0.74,-0.41l-4.12,0l0.74,0.41l0.3,0.8l-0.1,0.47l-0.26,0.39l-0.38,0.27l-0.48,0.09l-0.48,-0.1l-0.39,-0.26l-0.26,-0.39l-0.1,-0.47l0.3,-0.8l0.74,-0.41l-0.96,0l-0.24,-0.11l-0.11,-0.25l0.11,-0.25l0.24,-0.1l16.67,0l0,-24.85l-16.68,0l-0.25,-0.1l-0.11,-0.25l0.11,-0.25l0.25,-0.11l1.63,0l0,-0.78l0.12,-0.6l0.34,-0.49l0.49,-0.33l0.6,-0.12l4.67,0l-5.71,-5.49l-0.69,0.02l-0.55,-0.43l-0.89,0l-0.25,-0.1l-0.11,-0.25l0.11,-0.25l0.25,-0.11l0.75,0l0.36,-0.62l0.49,-0.22l0.51,0.05l0.42,0.3l0.23,0.49l11.62,0l0.36,-0.62l0.5,-0.22l0.51,0.05l0.41,0.3l0.23,0.49l14.05,0l0,-1.25l0.1,-0.26l0.26,-0.1l9.24,0l0.25,0.1l0.1,0.26l0,1.25l13.93,0l0.35,-0.6l0.66,-0.25l0.66,0.25l0.34,0.6l11.63,0l0.36,-0.62l0.5,-0.22l0.5,0.05l0.42,0.3l0.23,0.49l12.71,0l0,-1.25l0.11,-0.26l0.25,-0.1l9.24,0l0.25,0.11l0.1,0.25l0,1.25l3.57,0l0.25,0.11l0.1,0.25l-0.1,0.25l-0.25,0.1l-26.37,0l-0.57,0.43l-0.71,-0.04l-5.74,5.5l4.68,0l0.6,0.12l0.49,0.33l0.33,0.49l0.12,0.6l0,0.79l12.62,0l0.29,0.1l0.24,0.36l0.2,0.67l0.18,1.03l0.24,2.01l0.22,2.66l0.41,11.45l11.94,-4.52l0.27,0.12l-0.12,0.28l-12.09,4.57l0,0.29l-0.03,2.77l-0.1,2.13l12.28,4.66l0.12,0.1l0.49,0" fill="none" id="svg_1" stroke="black"/>
  <path d="m3.77,40.04l-0.11,0.41l-0.29,0.28l-0.39,0.11l-0.41,-0.11l-0.29,-0.3l-0.11,-0.4l0.11,-0.41l0.29,-0.28l0.39,-0.11l0.41,0.11l0.3,0.29l0.1,0.41" fill="none" id="svg_2" stroke="black"/>
  <path d="m8.27,40.04l-0.11,0.41l-0.29,0.28l-0.39,0.11l-0.41,-0.11l-0.3,-0.3l-0.11,-0.4l0.12,-0.41l0.29,-0.28l0.39,-0.11l0.41,0.11l0.29,0.29l0.11,0.41" fill="none" id="svg_3" stroke="black"/>
  <path d="m12.58,40.04l-0.11,0.41l-0.29,0.28l-0.39,0.11l-0.41,-0.11l-0.3,-0.3l-0.1,-0.4l0.11,-0.41l0.29,-0.28l0.39,-0.11l0.41,0.11l0.3,0.29l0.1,0.41" fill="none" id="svg_4" stroke="black"/>
  <path d="m84.44,36.25l-0.01,0l0.09,-2.02l0.03,-2.65l-0.73,0.28l0.23,0.71l0.09,1.39l-0.02,0.78l-0.07,0.58l-0.2,0.71l0.59,0.22" fill="none" id="svg_5" stroke="black"/>
  <path d="m83.4,32.02l0.08,0.11l0.1,0.32l0.09,0.59l0.04,0.92l-0.04,0.92l-0.09,0.59l-0.09,0.32l-0.08,0.11l-0.24,-0.15l-0.18,-0.4l-0.12,-0.61l-0.05,-0.78l0.04,-0.79l0.12,-0.61l0.19,-0.4l0.24,-0.14l-0.01,0" fill="none" id="svg_6" stroke="black"/>
  <path d="m84.44,25.68l0.04,1.51l-2.45,0l-0.47,-0.19l-0.19,-0.47l0,-10.32l0.19,-0.47l0.47,-0.19l1.74,0l0.19,1.83l0.18,2.32l0.17,2.77l0.13,3.22l0,-0.01" fill="none" id="svg_7" stroke="black"/>
  <path d="m83.73,15.12l-1.7,0l-0.77,0.32l-0.32,0.76l0,10.32l0.32,0.77l0.77,0.32l2.47,0l0.05,3.51l-1.22,0.46l-0.02,0l-0.39,0.2l-0.29,0.47l-0.18,0.72l-0.06,0.96l0.07,0.98l0.2,0.75l0.32,0.47l0.43,0.17l0.02,0l0.96,0.36l-0.1,0.91l-0.12,0.52l-17.25,0l0,-24.84l16.41,0l0.18,0.64l0.19,1.2l0.03,0.03" fill="none" id="svg_8" stroke="black"/>
  <path d="m50.68,38.12l-21.51,0l0,-24.85l37.34,0l0,24.85l-15.83,0" fill="none" id="svg_9" stroke="black"/>
  <path d="m70.15,11.79l0,0.78l-12.35,0l0,-0.78l0.24,-0.59l0.59,-0.24l10.7,0l0.58,0.24l0.25,0.59l-0.01,0" fill="none" id="svg_10" stroke="black"/>
  <path d="m63.97,9.9l-5.77,-5.54l11.55,0l-5.78,5.54" fill="none" id="svg_11" stroke="black"/>
  <path d="m85.21,2.75l8.53,0l0,0.9l-8.53,0l0,-0.9" fill="none" id="svg_12" stroke="black"/>
  <path d="m32.98,2.75l8.53,0l0,0.9l-8.53,0l0,-0.9" fill="none" id="svg_13" stroke="black"/>
  <path d="m16.13,4.36l-5.77,5.54l-5.78,-5.54l11.55,0" fill="none" id="svg_14" stroke="black"/>
  <path d="m4.18,11.79l0.24,-0.59l0.59,-0.24l10.7,0l0.58,0.24l0.25,0.59l0,0.78l-12.36,0l0,-0.78" fill="none" id="svg_15" stroke="black"/>
  <path d="m17.24,12.56l0,-0.78l-0.12,-0.6l-0.34,-0.49l-0.49,-0.33l-0.6,-0.12l-4.67,0l5.75,-5.52l0.45,0.11l0.5,-0.13l0.36,-0.35l38.22,0l0.57,0.43l0.71,-0.04l5.73,5.5l-4.67,0l-0.61,0.12l-0.49,0.33l-0.33,0.49l-0.12,0.6l0,0.78l-28.27,0l-0.25,0.11l-0.11,0.25l0,0.02l-1.3,0.46l-1.65,-0.59l-1.65,0.59l-1.65,-0.59l-1.66,0.59l-1.29,-0.46l0,-0.02l-0.11,-0.25l-0.25,-0.11l-1.63,0l-0.03,0" fill="none" id="svg_16" stroke="black"/>
  <path d="m27.15,37.42l-1.65,0.6l-1.65,-0.6l-1.66,0.6l-1.65,-0.6l-1.3,0.46l0,-24.2l1.3,0.47l1.65,-0.6l1.66,0.6l1.65,-0.6l1.65,0.6l1.3,-0.47l0,24.2l-1.3,-0.46" fill="none" id="svg_17" stroke="black"/>
  <path d="m14.53,41.26l0.69,-0.93l0.26,-1.18l0,-0.32l3.39,0l0.3,-0.16l1.36,-0.49l1.66,0.59l1.65,-0.59l1.65,0.59l1.65,-0.59l1.36,0.49l0.31,0.16l2.61,0l0,0.32l0.25,1.18l0.7,0.93l-17.84,0" fill="none" id="svg_18" stroke="black"/>
  <path d="m47.67,41.26l-13.44,0l-0.82,-0.17l-0.67,-0.45l-0.45,-0.67l-0.17,-0.82l0,-0.32l2.36,0l-0.74,0.41l-0.29,0.8l0.09,0.47l0.27,0.39l0.38,0.26l0.48,0.1l0.63,-0.17l0.43,-0.44l0.17,-0.59l-0.17,-0.63l-0.36,-0.4l-0.51,-0.2l3.82,0l-0.74,0.41l-0.3,0.8l0.1,0.47l0.26,0.39l0.39,0.26l0.47,0.1l0.48,-0.1l0.39,-0.26l0.26,-0.39l0.1,-0.47l-0.29,-0.8l-0.75,-0.41l4.13,0l-0.75,0.41l-0.29,0.8l0.1,0.47l0.26,0.39l0.39,0.26l0.48,0.1l0.47,-0.09l0.39,-0.27l0.26,-0.39l0.1,-0.47l-0.3,-0.8l-0.74,-0.41l3.94,0l-0.74,0.41l-0.3,0.8l0.1,0.47l0.26,0.39l0.39,0.26l0.47,0.1l0.47,-0.09l0.4,-0.27l0.26,-0.39l0.1,-0.47l-0.3,-0.8l-0.74,-0.41l2.47,0l0,0.32l-0.17,0.82l-0.45,0.67l-0.67,0.46l-0.82,0.16l-0.55,0" fill="none" id="svg_19" stroke="black"/>
  <path d="m34.68,39.24l0.41,0.12l0.28,0.28l0.11,0.39l-0.11,0.42l-0.29,0.29l-0.4,0.11l-0.42,-0.12l-0.28,-0.28l-0.11,-0.39l0.11,-0.42l0.3,-0.29l0.4,-0.11" fill="none" id="svg_20" stroke="black"/>
  <path d="m38.87,39.24l0.41,0.12l0.28,0.28l0.11,0.39l-0.11,0.42l-0.29,0.29l-0.4,0.11l-0.41,-0.12l-0.29,-0.28l-0.1,-0.39l0.1,-0.42l0.3,-0.29l0.4,-0.11" fill="none" id="svg_21" stroke="black"/>
  <path d="m43.36,39.24l0.42,0.12l0.28,0.28l0.11,0.39l-0.11,0.42l-0.3,0.29l-0.4,0.11l-0.41,-0.12l-0.28,-0.29l-0.11,-0.38l0.11,-0.42l0.29,-0.29l0.4,-0.11" fill="none" id="svg_22" stroke="black"/>
  <path d="m47.67,39.24l0.41,0.12l0.28,0.28l0.11,0.39l-0.11,0.42l-0.29,0.29l-0.4,0.11l-0.42,-0.12l-0.28,-0.28l-0.11,-0.39l0.11,-0.42l0.3,-0.29l0.4,-0.11" fill="none" id="svg_23" stroke="black"/>
  <path d="m50.08,41.26l0.69,-0.93l0.26,-1.18l0,-0.32l9.38,0l0,0.32l0.26,1.18l0.69,0.93l-11.28,0" fill="none" id="svg_24" stroke="black"/>
  <path d="m76.7,41.26l-13.48,0l-0.82,-0.17l-0.67,-0.45l-0.45,-0.67l-0.17,-0.82l0,-0.32l2.41,0l-0.74,0.41l-0.29,0.8l0.1,0.47l0.26,0.39l0.39,0.26l0.47,0.1l0.63,-0.17l0.43,-0.44l0.17,-0.59l-0.16,-0.63l-0.37,-0.4l-0.5,-0.2l3.81,0l-0.74,0.41l-0.29,0.8l0.09,0.47l0.26,0.39l0.39,0.26l0.48,0.1l0.47,-0.1l0.39,-0.26l0.26,-0.39l0.1,-0.47l-0.29,-0.8l-0.74,-0.41l4.12,0l-0.74,0.41l-0.3,0.8l0.1,0.47l0.26,0.39l0.39,0.26l0.48,0.1l0.48,-0.09l0.38,-0.27l0.26,-0.39l0.1,-0.47l-0.3,-0.8l-0.74,-0.41l3.94,0l-0.74,0.41l-0.29,0.8l0.09,0.47l0.27,0.39l0.39,0.26l0.47,0.1l0.63,-0.17l0.43,-0.44l0.17,-0.59l-0.17,-0.63l-0.36,-0.4l-0.51,-0.2l2.42,0l0,0.32l-0.17,0.82l-0.45,0.67l-0.67,0.46l-0.82,0.16l-0.52,0" fill="none" id="svg_25" stroke="black"/>
  <path d="m63.71,39.24l0.41,0.12l0.28,0.28l0.11,0.39l-0.11,0.42l-0.29,0.29l-0.41,0.11l-0.41,-0.12l-0.28,-0.28l-0.11,-0.39l0.11,-0.42l0.29,-0.29l0.41,-0.11" fill="none" id="svg_26" stroke="black"/>
  <path d="m67.9,39.24l0.41,0.12l0.28,0.28l0.11,0.39l-0.11,0.42l-0.29,0.29l-0.4,0.11l-0.42,-0.12l-0.28,-0.28l-0.11,-0.39l0.11,-0.42l0.3,-0.29l0.4,-0.11" fill="none" id="svg_27" stroke="black"/>
  <path d="m72.39,39.24l0.41,0.12l0.28,0.28l0.11,0.39l-0.11,0.42l-0.29,0.29l-0.4,0.11l-0.41,-0.12l-0.29,-0.28l-0.1,-0.39l0.1,-0.42l0.3,-0.29l0.4,-0.11" fill="none" id="svg_28" stroke="black"/>
  <path d="m76.7,39.24l0.41,0.12l0.29,0.28l0.1,0.39l-0.1,0.42l-0.3,0.29l-0.4,0.11l-0.41,-0.12l-0.28,-0.28l-0.11,-0.39l0.11,-0.42l0.29,-0.29l0.4,-0.11" fill="none" id="svg_29" stroke="black"/>
  <path d="m80.01,39.15l0,-0.32l4.31,0l0.29,-0.09l0.21,-0.32l0.15,-0.58l0.12,-0.89l11.37,4.31l-17.4,0l0.69,-0.93l0.26,-1.18" fill="none" id="svg_30" stroke="black"/>
  <path d="m98.02,43.25l0.25,0.11l0.1,0.25l-0.1,0.24l-0.25,0.11l-96.18,0l-0.25,-0.1l-0.11,-0.25l0.11,-0.25l0.25,-0.11l96.18,0" fill="none" id="svg_31" stroke="black"/>
  <path d="m71.38,27.62l-0.77,-0.32l-0.32,-0.77l0,-10.32l0.32,-0.77l0.77,-0.31l5.96,0l0.77,0.31l0.32,0.77l0,10.32l-0.32,0.77l-0.77,0.32l-5.96,0" fill="none" id="svg_32" stroke="black"/>
  <path d="m70.72,16.21l0.19,-0.47l0.47,-0.19l5.96,0l0.47,0.19l0.19,0.47l0,10.32l-0.19,0.47l-0.47,0.19l-5.96,0l-0.47,-0.19l-0.19,-0.47l0,-10.32" fill="none" id="svg_33" stroke="black"/>
  <path d="m20.54,14.34l0.2,0.22l-0.65,10.98l-0.21,0.2l-0.01,0l-0.21,-0.22l0.65,-10.98l0.23,-0.2" fill="none" id="svg_34" stroke="black"/>
  <path d="m23.2,25.31l0.01,0l0.19,0.22l-0.77,10.78l-0.22,0.19l-0.02,0l-0.19,-0.22l0.77,-10.78l0.23,-0.19" fill="none" id="svg_35" stroke="black"/>
  <path d="m27.59,30.6l0.01,0l0.19,0.22l-0.39,5.5l-0.22,0.19l-0.02,0l-0.19,-0.22l0.39,-5.5l0.23,-0.19" fill="none" id="svg_36" stroke="black"/>
  <path d="m25.72,14.88l0.01,0l-0.39,5.5l-0.22,0.19l-0.02,0l-0.19,-0.22l0.4,-5.5l0.22,-0.19l0.19,0.22" fill="none" id="svg_37" stroke="black"/>
  <path d="m22.36,14.34l0.01,0l0.2,0.22l-1.47,22.37l-0.22,0.2l-0.01,0l-0.2,-0.22l1.47,-22.37l0.22,-0.2" fill="none" id="svg_38" stroke="black"/>
  <path d="m26.99,14.34l0.2,0.22l-1.47,22.37l-0.21,0.2l-0.01,0l-0.21,-0.22l1.48,-22.37l0.22,-0.2" fill="none" id="svg_39" stroke="black"/>
  <path d="m62.44,15.12l0.77,0.32l0.31,0.76l0,10.32l-0.31,0.77l-0.77,0.32l-12.11,0l-0.77,-0.32l-0.32,-0.77l0,-10.32l0.32,-0.76l0.77,-0.32l12.11,0" fill="none" id="svg_40" stroke="black"/>
  <path d="m49.66,26.53l0,-10.32l0.19,-0.47l0.47,-0.19l3.12,0l0,11.64l-3.12,0l-0.47,-0.19l-0.19,-0.47" fill="none" id="svg_41" stroke="black"/>
  <path d="m63.1,26.53l-0.19,0.47l-0.47,0.19l-8.56,0l0,-11.64l8.56,0l0.47,0.2l0.19,0.46l0,10.32" fill="none" id="svg_42" stroke="black"/>
  <path d="m44.27,27.62l-12.12,0l-0.76,-0.32l-0.32,-0.77l0,-10.32l0.32,-0.77l0.76,-0.31l12.12,0l0.76,0.31l0.32,0.77l0,10.32l-0.32,0.77l-0.76,0.32" fill="none" id="svg_43" stroke="black"/>
  <path d="m44.93,16.21l0,10.32l-0.2,0.47l-0.46,0.19l-8.67,0l0,-11.64l8.67,0l0.46,0.2l0.2,0.46" fill="none" id="svg_44" stroke="black"/>
  <path d="m31.49,26.53l0,-10.32l0.19,-0.47l0.47,-0.19l3.03,0l0,11.64l-3.03,0l-0.47,-0.19l-0.19,-0.47" fill="none" id="svg_45" stroke="black"/>
  <path d="m1.84,27.19l3.36,0l0,-11.63l-3.36,0l-0.22,-0.22l0.22,-0.21l11.2,0l0.77,0.32l0.31,0.77l0,10.32l-0.31,0.76l-0.77,0.32l-11.2,0l-0.22,-0.21l0.22,-0.22" fill="none" id="svg_46" stroke="black"/>
  <path d="m5.63,15.54l7.41,0l0.47,0.2l0.19,0.46l0,10.32l-0.19,0.47l-0.47,0.19l-7.41,0l0,-11.64" fill="none" id="svg_47" stroke="black"/>
  <path d="m10.35,30.7l0.21,0.21l-0.21,0.22l-6.25,0l-0.22,-0.22l0.22,-0.21l6.25,0" fill="none" id="svg_48" stroke="black"/>
  <path d="m10.35,32.73l0.21,0.21l-0.21,0.22l-6.25,0l-0.22,-0.22l0.22,-0.21l6.25,0" fill="none" id="svg_49" stroke="black"/>
  <path d="m10.35,34.76l0.21,0.21l-0.21,0.22l-6.25,0l-0.22,-0.22l0.22,-0.21l6.25,0" fill="none" id="svg_50" stroke="black"/>
  <path d="m59.95,30.7l0.22,0.21l-0.22,0.22l-25.18,0l-0.22,-0.22l0.22,-0.21l25.18,0" fill="none" id="svg_51" stroke="black"/>
  <path d="m59.95,32.73l0.22,0.21l-0.22,0.22l-25.18,0l-0.22,-0.22l0.22,-0.21l25.18,0" fill="none" id="svg_52" stroke="black"/>
  <path d="m59.95,34.76l0.22,0.21l-0.22,0.22l-25.18,0l-0.22,-0.22l0.22,-0.21l25.18,0" fill="none" id="svg_53" stroke="black"/>
 </g>

</svg>